<mxfile host="app.diagrams.net" modified="2024-06-25T16:43:41.674Z" agent="Mozilla/5.0 (Windows NT 10.0; Win64; x64) AppleWebKit/537.36 (KHTML, like Gecko) Chrome/126.0.0.0 Safari/537.36 Edg/126.0.0.0" etag="kJIscxK1OQoDcDBonR_n" version="24.6.2" type="device">
  <diagram name="Страница — 1" id="xo-urQjg2nn6gKmDcGt9">
    <mxGraphModel dx="516" dy="-289" grid="1" gridSize="10" guides="1" tooltips="1" connect="1" arrows="1" fold="1" page="1" pageScale="1" pageWidth="827" pageHeight="1169" math="0" shadow="0">
      <root>
        <mxCell id="0" />
        <mxCell id="1" parent="0" />
        <mxCell id="kPXknSdjGEKlvKpwFSjT-3" value="" style="edgeStyle=orthogonalEdgeStyle;rounded=0;orthogonalLoop=1;jettySize=auto;html=1;" edge="1" parent="1" source="kPXknSdjGEKlvKpwFSjT-1" target="kPXknSdjGEKlvKpwFSjT-2">
          <mxGeometry relative="1" as="geometry" />
        </mxCell>
        <mxCell id="kPXknSdjGEKlvKpwFSjT-1" value="1" style="ellipse;whiteSpace=wrap;html=1;aspect=fixed;" vertex="1" parent="1">
          <mxGeometry x="389" y="1360" width="50" height="50" as="geometry" />
        </mxCell>
        <mxCell id="kPXknSdjGEKlvKpwFSjT-2" value="2" style="ellipse;whiteSpace=wrap;html=1;aspect=fixed;" vertex="1" parent="1">
          <mxGeometry x="389" y="1430" width="50" height="50" as="geometry" />
        </mxCell>
        <mxCell id="kPXknSdjGEKlvKpwFSjT-4" value="" style="endArrow=none;html=1;rounded=0;" edge="1" parent="1">
          <mxGeometry width="50" height="50" relative="1" as="geometry">
            <mxPoint x="349" y="1455" as="sourcePoint" />
            <mxPoint x="389" y="1454.5" as="targetPoint" />
          </mxGeometry>
        </mxCell>
        <mxCell id="kPXknSdjGEKlvKpwFSjT-8" value="3" style="ellipse;whiteSpace=wrap;html=1;aspect=fixed;" vertex="1" parent="1">
          <mxGeometry x="320" y="1490" width="50" height="50" as="geometry" />
        </mxCell>
        <mxCell id="kPXknSdjGEKlvKpwFSjT-12" value="" style="endArrow=none;html=1;rounded=0;" edge="1" parent="1">
          <mxGeometry width="50" height="50" relative="1" as="geometry">
            <mxPoint x="439" y="1455" as="sourcePoint" />
            <mxPoint x="479" y="1454.5" as="targetPoint" />
          </mxGeometry>
        </mxCell>
        <mxCell id="kPXknSdjGEKlvKpwFSjT-13" value="" style="endArrow=classic;html=1;rounded=0;" edge="1" parent="1">
          <mxGeometry width="50" height="50" relative="1" as="geometry">
            <mxPoint x="350" y="1450" as="sourcePoint" />
            <mxPoint x="350" y="1490" as="targetPoint" />
          </mxGeometry>
        </mxCell>
        <mxCell id="kPXknSdjGEKlvKpwFSjT-15" value="" style="endArrow=none;html=1;rounded=0;" edge="1" parent="1">
          <mxGeometry width="50" height="50" relative="1" as="geometry">
            <mxPoint x="480" y="1560" as="sourcePoint" />
            <mxPoint x="480" y="1450" as="targetPoint" />
          </mxGeometry>
        </mxCell>
        <mxCell id="kPXknSdjGEKlvKpwFSjT-16" value="" style="endArrow=none;html=1;rounded=0;" edge="1" parent="1">
          <mxGeometry width="50" height="50" relative="1" as="geometry">
            <mxPoint x="344.5" y="1560" as="sourcePoint" />
            <mxPoint x="344.5" y="1540" as="targetPoint" />
          </mxGeometry>
        </mxCell>
        <mxCell id="kPXknSdjGEKlvKpwFSjT-17" value="" style="endArrow=none;html=1;rounded=0;" edge="1" parent="1">
          <mxGeometry width="50" height="50" relative="1" as="geometry">
            <mxPoint x="340" y="1560" as="sourcePoint" />
            <mxPoint x="480" y="1560" as="targetPoint" />
          </mxGeometry>
        </mxCell>
        <mxCell id="kPXknSdjGEKlvKpwFSjT-23" value="" style="edgeStyle=orthogonalEdgeStyle;rounded=0;orthogonalLoop=1;jettySize=auto;html=1;" edge="1" parent="1">
          <mxGeometry relative="1" as="geometry">
            <mxPoint x="413" y="1560" as="sourcePoint" />
            <mxPoint x="413" y="1580" as="targetPoint" />
          </mxGeometry>
        </mxCell>
        <mxCell id="kPXknSdjGEKlvKpwFSjT-24" value="4" style="ellipse;whiteSpace=wrap;html=1;aspect=fixed;" vertex="1" parent="1">
          <mxGeometry x="389" y="1580" width="50" height="50" as="geometry" />
        </mxCell>
        <mxCell id="kPXknSdjGEKlvKpwFSjT-25" value="" style="endArrow=none;html=1;rounded=0;" edge="1" parent="1">
          <mxGeometry width="50" height="50" relative="1" as="geometry">
            <mxPoint x="349" y="1605" as="sourcePoint" />
            <mxPoint x="389" y="1604.5" as="targetPoint" />
          </mxGeometry>
        </mxCell>
        <mxCell id="kPXknSdjGEKlvKpwFSjT-26" value="5" style="ellipse;whiteSpace=wrap;html=1;aspect=fixed;" vertex="1" parent="1">
          <mxGeometry x="320" y="1640" width="50" height="50" as="geometry" />
        </mxCell>
        <mxCell id="kPXknSdjGEKlvKpwFSjT-27" value="" style="endArrow=none;html=1;rounded=0;" edge="1" parent="1">
          <mxGeometry width="50" height="50" relative="1" as="geometry">
            <mxPoint x="439" y="1605" as="sourcePoint" />
            <mxPoint x="479" y="1604.5" as="targetPoint" />
          </mxGeometry>
        </mxCell>
        <mxCell id="kPXknSdjGEKlvKpwFSjT-28" value="" style="endArrow=classic;html=1;rounded=0;" edge="1" parent="1">
          <mxGeometry width="50" height="50" relative="1" as="geometry">
            <mxPoint x="350" y="1600" as="sourcePoint" />
            <mxPoint x="350" y="1640" as="targetPoint" />
          </mxGeometry>
        </mxCell>
        <mxCell id="kPXknSdjGEKlvKpwFSjT-29" value="" style="endArrow=none;html=1;rounded=0;" edge="1" parent="1">
          <mxGeometry width="50" height="50" relative="1" as="geometry">
            <mxPoint x="480" y="1710" as="sourcePoint" />
            <mxPoint x="480" y="1600" as="targetPoint" />
          </mxGeometry>
        </mxCell>
        <mxCell id="kPXknSdjGEKlvKpwFSjT-30" value="" style="endArrow=none;html=1;rounded=0;" edge="1" parent="1">
          <mxGeometry width="50" height="50" relative="1" as="geometry">
            <mxPoint x="344.5" y="1710" as="sourcePoint" />
            <mxPoint x="344.5" y="1690" as="targetPoint" />
          </mxGeometry>
        </mxCell>
        <mxCell id="kPXknSdjGEKlvKpwFSjT-31" value="" style="endArrow=none;html=1;rounded=0;" edge="1" parent="1">
          <mxGeometry width="50" height="50" relative="1" as="geometry">
            <mxPoint x="340" y="1710" as="sourcePoint" />
            <mxPoint x="480" y="1710" as="targetPoint" />
          </mxGeometry>
        </mxCell>
        <mxCell id="kPXknSdjGEKlvKpwFSjT-32" value="" style="endArrow=none;html=1;rounded=0;" edge="1" parent="1">
          <mxGeometry width="50" height="50" relative="1" as="geometry">
            <mxPoint x="413" y="1740" as="sourcePoint" />
            <mxPoint x="413" y="1710" as="targetPoint" />
          </mxGeometry>
        </mxCell>
        <mxCell id="kPXknSdjGEKlvKpwFSjT-33" value="" style="endArrow=none;html=1;rounded=0;" edge="1" parent="1">
          <mxGeometry width="50" height="50" relative="1" as="geometry">
            <mxPoint x="300" y="1740" as="sourcePoint" />
            <mxPoint x="414" y="1740" as="targetPoint" />
          </mxGeometry>
        </mxCell>
        <mxCell id="kPXknSdjGEKlvKpwFSjT-34" value="" style="endArrow=none;html=1;rounded=0;" edge="1" parent="1">
          <mxGeometry width="50" height="50" relative="1" as="geometry">
            <mxPoint x="300" y="1740" as="sourcePoint" />
            <mxPoint x="300" y="1380" as="targetPoint" />
          </mxGeometry>
        </mxCell>
        <mxCell id="kPXknSdjGEKlvKpwFSjT-38" value="" style="endArrow=classic;html=1;rounded=0;entryX=0.02;entryY=0.4;entryDx=0;entryDy=0;entryPerimeter=0;" edge="1" parent="1" target="kPXknSdjGEKlvKpwFSjT-1">
          <mxGeometry width="50" height="50" relative="1" as="geometry">
            <mxPoint x="300" y="1380" as="sourcePoint" />
            <mxPoint x="380" y="1380" as="targetPoint" />
          </mxGeometry>
        </mxCell>
        <mxCell id="kPXknSdjGEKlvKpwFSjT-46" value="6" style="ellipse;whiteSpace=wrap;html=1;aspect=fixed;" vertex="1" parent="1">
          <mxGeometry x="388" y="1770" width="50" height="50" as="geometry" />
        </mxCell>
        <mxCell id="kPXknSdjGEKlvKpwFSjT-47" value="" style="endArrow=none;html=1;rounded=0;" edge="1" parent="1">
          <mxGeometry width="50" height="50" relative="1" as="geometry">
            <mxPoint x="349" y="1795" as="sourcePoint" />
            <mxPoint x="389" y="1794.5" as="targetPoint" />
          </mxGeometry>
        </mxCell>
        <mxCell id="kPXknSdjGEKlvKpwFSjT-48" value="7" style="ellipse;whiteSpace=wrap;html=1;aspect=fixed;" vertex="1" parent="1">
          <mxGeometry x="320" y="1830" width="50" height="50" as="geometry" />
        </mxCell>
        <mxCell id="kPXknSdjGEKlvKpwFSjT-49" value="" style="endArrow=none;html=1;rounded=0;" edge="1" parent="1">
          <mxGeometry width="50" height="50" relative="1" as="geometry">
            <mxPoint x="439" y="1795" as="sourcePoint" />
            <mxPoint x="479" y="1794.5" as="targetPoint" />
          </mxGeometry>
        </mxCell>
        <mxCell id="kPXknSdjGEKlvKpwFSjT-50" value="" style="endArrow=classic;html=1;rounded=0;" edge="1" parent="1">
          <mxGeometry width="50" height="50" relative="1" as="geometry">
            <mxPoint x="350" y="1790" as="sourcePoint" />
            <mxPoint x="350" y="1830" as="targetPoint" />
          </mxGeometry>
        </mxCell>
        <mxCell id="kPXknSdjGEKlvKpwFSjT-52" value="" style="endArrow=none;html=1;rounded=0;" edge="1" parent="1">
          <mxGeometry width="50" height="50" relative="1" as="geometry">
            <mxPoint x="344.5" y="1900" as="sourcePoint" />
            <mxPoint x="344.5" y="1880" as="targetPoint" />
          </mxGeometry>
        </mxCell>
        <mxCell id="kPXknSdjGEKlvKpwFSjT-53" value="" style="endArrow=none;html=1;rounded=0;" edge="1" parent="1">
          <mxGeometry width="50" height="50" relative="1" as="geometry">
            <mxPoint x="340" y="1900" as="sourcePoint" />
            <mxPoint x="480" y="1900" as="targetPoint" />
          </mxGeometry>
        </mxCell>
        <mxCell id="kPXknSdjGEKlvKpwFSjT-54" value="" style="endArrow=none;html=1;rounded=0;" edge="1" parent="1">
          <mxGeometry width="50" height="50" relative="1" as="geometry">
            <mxPoint x="439" y="1380" as="sourcePoint" />
            <mxPoint x="530" y="1380" as="targetPoint" />
          </mxGeometry>
        </mxCell>
        <mxCell id="kPXknSdjGEKlvKpwFSjT-55" value="" style="endArrow=none;html=1;rounded=0;" edge="1" parent="1">
          <mxGeometry width="50" height="50" relative="1" as="geometry">
            <mxPoint x="530" y="1750" as="sourcePoint" />
            <mxPoint x="530" y="1380" as="targetPoint" />
          </mxGeometry>
        </mxCell>
        <mxCell id="kPXknSdjGEKlvKpwFSjT-56" value="" style="endArrow=none;html=1;rounded=0;" edge="1" parent="1">
          <mxGeometry width="50" height="50" relative="1" as="geometry">
            <mxPoint x="410" y="1750" as="sourcePoint" />
            <mxPoint x="530" y="1750" as="targetPoint" />
          </mxGeometry>
        </mxCell>
        <mxCell id="kPXknSdjGEKlvKpwFSjT-57" value="" style="edgeStyle=orthogonalEdgeStyle;rounded=0;orthogonalLoop=1;jettySize=auto;html=1;" edge="1" parent="1">
          <mxGeometry relative="1" as="geometry">
            <mxPoint x="413" y="1750" as="sourcePoint" />
            <mxPoint x="413" y="1770" as="targetPoint" />
          </mxGeometry>
        </mxCell>
        <mxCell id="kPXknSdjGEKlvKpwFSjT-58" value="16" style="ellipse;whiteSpace=wrap;html=1;aspect=fixed;" vertex="1" parent="1">
          <mxGeometry x="450" y="1830" width="50" height="50" as="geometry" />
        </mxCell>
        <mxCell id="kPXknSdjGEKlvKpwFSjT-59" value="" style="endArrow=classic;html=1;rounded=0;" edge="1" parent="1">
          <mxGeometry width="50" height="50" relative="1" as="geometry">
            <mxPoint x="474.5" y="1790" as="sourcePoint" />
            <mxPoint x="474.5" y="1830" as="targetPoint" />
          </mxGeometry>
        </mxCell>
        <mxCell id="kPXknSdjGEKlvKpwFSjT-60" value="" style="endArrow=none;html=1;rounded=0;" edge="1" parent="1">
          <mxGeometry width="50" height="50" relative="1" as="geometry">
            <mxPoint x="474.5" y="1900" as="sourcePoint" />
            <mxPoint x="474.5" y="1880" as="targetPoint" />
          </mxGeometry>
        </mxCell>
        <mxCell id="kPXknSdjGEKlvKpwFSjT-61" value="" style="edgeStyle=orthogonalEdgeStyle;rounded=0;orthogonalLoop=1;jettySize=auto;html=1;" edge="1" parent="1">
          <mxGeometry relative="1" as="geometry">
            <mxPoint x="413" y="1900" as="sourcePoint" />
            <mxPoint x="413" y="1920" as="targetPoint" />
          </mxGeometry>
        </mxCell>
        <mxCell id="kPXknSdjGEKlvKpwFSjT-62" value="8" style="ellipse;whiteSpace=wrap;html=1;aspect=fixed;" vertex="1" parent="1">
          <mxGeometry x="389" y="1920" width="50" height="50" as="geometry" />
        </mxCell>
        <mxCell id="kPXknSdjGEKlvKpwFSjT-63" value="" style="edgeStyle=orthogonalEdgeStyle;rounded=0;orthogonalLoop=1;jettySize=auto;html=1;" edge="1" parent="1">
          <mxGeometry relative="1" as="geometry">
            <mxPoint x="414" y="1970" as="sourcePoint" />
            <mxPoint x="414" y="1990" as="targetPoint" />
          </mxGeometry>
        </mxCell>
        <mxCell id="kPXknSdjGEKlvKpwFSjT-64" value="9" style="ellipse;whiteSpace=wrap;html=1;aspect=fixed;" vertex="1" parent="1">
          <mxGeometry x="389" y="1990" width="50" height="50" as="geometry" />
        </mxCell>
        <mxCell id="kPXknSdjGEKlvKpwFSjT-65" value="" style="edgeStyle=orthogonalEdgeStyle;rounded=0;orthogonalLoop=1;jettySize=auto;html=1;" edge="1" parent="1">
          <mxGeometry relative="1" as="geometry">
            <mxPoint x="414" y="2040" as="sourcePoint" />
            <mxPoint x="414" y="2060" as="targetPoint" />
          </mxGeometry>
        </mxCell>
        <mxCell id="kPXknSdjGEKlvKpwFSjT-67" value="10" style="ellipse;whiteSpace=wrap;html=1;aspect=fixed;" vertex="1" parent="1">
          <mxGeometry x="388" y="2060" width="50" height="50" as="geometry" />
        </mxCell>
        <mxCell id="kPXknSdjGEKlvKpwFSjT-68" value="" style="endArrow=none;html=1;rounded=0;" edge="1" parent="1">
          <mxGeometry width="50" height="50" relative="1" as="geometry">
            <mxPoint x="349" y="2085" as="sourcePoint" />
            <mxPoint x="389" y="2084.5" as="targetPoint" />
          </mxGeometry>
        </mxCell>
        <mxCell id="kPXknSdjGEKlvKpwFSjT-69" value="11" style="ellipse;whiteSpace=wrap;html=1;aspect=fixed;" vertex="1" parent="1">
          <mxGeometry x="320" y="2120" width="50" height="50" as="geometry" />
        </mxCell>
        <mxCell id="kPXknSdjGEKlvKpwFSjT-70" value="" style="endArrow=none;html=1;rounded=0;" edge="1" parent="1">
          <mxGeometry width="50" height="50" relative="1" as="geometry">
            <mxPoint x="439" y="2085" as="sourcePoint" />
            <mxPoint x="479" y="2084.5" as="targetPoint" />
          </mxGeometry>
        </mxCell>
        <mxCell id="kPXknSdjGEKlvKpwFSjT-71" value="" style="endArrow=classic;html=1;rounded=0;" edge="1" parent="1">
          <mxGeometry width="50" height="50" relative="1" as="geometry">
            <mxPoint x="350" y="2080" as="sourcePoint" />
            <mxPoint x="350" y="2120" as="targetPoint" />
          </mxGeometry>
        </mxCell>
        <mxCell id="kPXknSdjGEKlvKpwFSjT-72" value="" style="endArrow=none;html=1;rounded=0;" edge="1" parent="1">
          <mxGeometry width="50" height="50" relative="1" as="geometry">
            <mxPoint x="344.5" y="2190" as="sourcePoint" />
            <mxPoint x="344.5" y="2170" as="targetPoint" />
          </mxGeometry>
        </mxCell>
        <mxCell id="kPXknSdjGEKlvKpwFSjT-73" value="" style="endArrow=none;html=1;rounded=0;" edge="1" parent="1">
          <mxGeometry width="50" height="50" relative="1" as="geometry">
            <mxPoint x="340" y="2190" as="sourcePoint" />
            <mxPoint x="480" y="2190" as="targetPoint" />
          </mxGeometry>
        </mxCell>
        <mxCell id="kPXknSdjGEKlvKpwFSjT-74" value="17" style="ellipse;whiteSpace=wrap;html=1;aspect=fixed;" vertex="1" parent="1">
          <mxGeometry x="450" y="2120" width="50" height="50" as="geometry" />
        </mxCell>
        <mxCell id="kPXknSdjGEKlvKpwFSjT-75" value="" style="endArrow=classic;html=1;rounded=0;" edge="1" parent="1">
          <mxGeometry width="50" height="50" relative="1" as="geometry">
            <mxPoint x="474.5" y="2080" as="sourcePoint" />
            <mxPoint x="474.5" y="2120" as="targetPoint" />
          </mxGeometry>
        </mxCell>
        <mxCell id="kPXknSdjGEKlvKpwFSjT-76" value="" style="endArrow=none;html=1;rounded=0;" edge="1" parent="1">
          <mxGeometry width="50" height="50" relative="1" as="geometry">
            <mxPoint x="474.5" y="2190" as="sourcePoint" />
            <mxPoint x="474.5" y="2170" as="targetPoint" />
          </mxGeometry>
        </mxCell>
        <mxCell id="kPXknSdjGEKlvKpwFSjT-77" value="1" style="ellipse;whiteSpace=wrap;html=1;aspect=fixed;" vertex="1" parent="1">
          <mxGeometry x="388" y="2210" width="50" height="50" as="geometry" />
        </mxCell>
        <mxCell id="kPXknSdjGEKlvKpwFSjT-78" value="" style="strokeWidth=2;html=1;shape=mxgraph.flowchart.annotation_2;align=left;labelPosition=right;pointerEvents=1;rotation=0;" vertex="1" parent="1">
          <mxGeometry x="462.5" y="2210" width="30" height="50" as="geometry" />
        </mxCell>
        <mxCell id="kPXknSdjGEKlvKpwFSjT-79" value="" style="endArrow=none;dashed=1;html=1;rounded=0;" edge="1" parent="1">
          <mxGeometry width="50" height="50" relative="1" as="geometry">
            <mxPoint x="438" y="2234.5" as="sourcePoint" />
            <mxPoint x="458" y="2234.5" as="targetPoint" />
          </mxGeometry>
        </mxCell>
        <mxCell id="kPXknSdjGEKlvKpwFSjT-80" value="из бл10 стр21 в бл12 стр22" style="text;html=1;strokeColor=none;fillColor=none;align=center;verticalAlign=middle;whiteSpace=wrap;rounded=0;" vertex="1" parent="1">
          <mxGeometry x="483" y="2210" width="60" height="45" as="geometry" />
        </mxCell>
        <mxCell id="kPXknSdjGEKlvKpwFSjT-81" value="" style="edgeStyle=orthogonalEdgeStyle;rounded=0;orthogonalLoop=1;jettySize=auto;html=1;" edge="1" parent="1">
          <mxGeometry relative="1" as="geometry">
            <mxPoint x="413" y="2190" as="sourcePoint" />
            <mxPoint x="413" y="2210" as="targetPoint" />
          </mxGeometry>
        </mxCell>
        <mxCell id="kPXknSdjGEKlvKpwFSjT-82" value="1" style="ellipse;whiteSpace=wrap;html=1;aspect=fixed;" vertex="1" parent="1">
          <mxGeometry x="388" y="2390" width="50" height="50" as="geometry" />
        </mxCell>
        <mxCell id="kPXknSdjGEKlvKpwFSjT-83" value="" style="strokeWidth=2;html=1;shape=mxgraph.flowchart.annotation_2;align=left;labelPosition=right;pointerEvents=1;rotation=0;" vertex="1" parent="1">
          <mxGeometry x="462.5" y="2390" width="30" height="50" as="geometry" />
        </mxCell>
        <mxCell id="kPXknSdjGEKlvKpwFSjT-84" value="" style="endArrow=none;dashed=1;html=1;rounded=0;" edge="1" parent="1">
          <mxGeometry width="50" height="50" relative="1" as="geometry">
            <mxPoint x="438" y="2414.5" as="sourcePoint" />
            <mxPoint x="458" y="2414.5" as="targetPoint" />
          </mxGeometry>
        </mxCell>
        <mxCell id="kPXknSdjGEKlvKpwFSjT-86" value="" style="edgeStyle=orthogonalEdgeStyle;rounded=0;orthogonalLoop=1;jettySize=auto;html=1;" edge="1" parent="1">
          <mxGeometry relative="1" as="geometry">
            <mxPoint x="413" y="2440" as="sourcePoint" />
            <mxPoint x="413" y="2460" as="targetPoint" />
          </mxGeometry>
        </mxCell>
        <mxCell id="kPXknSdjGEKlvKpwFSjT-87" value="12" style="ellipse;whiteSpace=wrap;html=1;aspect=fixed;" vertex="1" parent="1">
          <mxGeometry x="388" y="2460" width="50" height="50" as="geometry" />
        </mxCell>
        <mxCell id="kPXknSdjGEKlvKpwFSjT-88" value="" style="edgeStyle=orthogonalEdgeStyle;rounded=0;orthogonalLoop=1;jettySize=auto;html=1;" edge="1" parent="1">
          <mxGeometry relative="1" as="geometry">
            <mxPoint x="414" y="2510" as="sourcePoint" />
            <mxPoint x="414" y="2530" as="targetPoint" />
          </mxGeometry>
        </mxCell>
        <mxCell id="kPXknSdjGEKlvKpwFSjT-90" value="13" style="ellipse;whiteSpace=wrap;html=1;aspect=fixed;" vertex="1" parent="1">
          <mxGeometry x="388" y="2530" width="50" height="50" as="geometry" />
        </mxCell>
        <mxCell id="kPXknSdjGEKlvKpwFSjT-91" value="" style="endArrow=none;html=1;rounded=0;" edge="1" parent="1">
          <mxGeometry width="50" height="50" relative="1" as="geometry">
            <mxPoint x="349" y="2555" as="sourcePoint" />
            <mxPoint x="389" y="2554.5" as="targetPoint" />
          </mxGeometry>
        </mxCell>
        <mxCell id="kPXknSdjGEKlvKpwFSjT-92" value="14" style="ellipse;whiteSpace=wrap;html=1;aspect=fixed;" vertex="1" parent="1">
          <mxGeometry x="320" y="2590" width="50" height="50" as="geometry" />
        </mxCell>
        <mxCell id="kPXknSdjGEKlvKpwFSjT-93" value="" style="endArrow=none;html=1;rounded=0;" edge="1" parent="1">
          <mxGeometry width="50" height="50" relative="1" as="geometry">
            <mxPoint x="439" y="2555" as="sourcePoint" />
            <mxPoint x="479" y="2554.5" as="targetPoint" />
          </mxGeometry>
        </mxCell>
        <mxCell id="kPXknSdjGEKlvKpwFSjT-94" value="" style="endArrow=classic;html=1;rounded=0;" edge="1" parent="1">
          <mxGeometry width="50" height="50" relative="1" as="geometry">
            <mxPoint x="350" y="2550" as="sourcePoint" />
            <mxPoint x="350" y="2590" as="targetPoint" />
          </mxGeometry>
        </mxCell>
        <mxCell id="kPXknSdjGEKlvKpwFSjT-96" value="" style="endArrow=none;html=1;rounded=0;" edge="1" parent="1">
          <mxGeometry width="50" height="50" relative="1" as="geometry">
            <mxPoint x="343" y="2760" as="sourcePoint" />
            <mxPoint x="470" y="2760" as="targetPoint" />
          </mxGeometry>
        </mxCell>
        <mxCell id="kPXknSdjGEKlvKpwFSjT-97" value="18" style="ellipse;whiteSpace=wrap;html=1;aspect=fixed;" vertex="1" parent="1">
          <mxGeometry x="450" y="2590" width="50" height="50" as="geometry" />
        </mxCell>
        <mxCell id="kPXknSdjGEKlvKpwFSjT-98" value="" style="endArrow=classic;html=1;rounded=0;" edge="1" parent="1">
          <mxGeometry width="50" height="50" relative="1" as="geometry">
            <mxPoint x="474.5" y="2550" as="sourcePoint" />
            <mxPoint x="474.5" y="2590" as="targetPoint" />
          </mxGeometry>
        </mxCell>
        <mxCell id="kPXknSdjGEKlvKpwFSjT-99" value="" style="endArrow=none;html=1;rounded=0;" edge="1" parent="1">
          <mxGeometry width="50" height="50" relative="1" as="geometry">
            <mxPoint x="475" y="2760" as="sourcePoint" />
            <mxPoint x="474.5" y="2640" as="targetPoint" />
          </mxGeometry>
        </mxCell>
        <mxCell id="kPXknSdjGEKlvKpwFSjT-100" value="" style="edgeStyle=orthogonalEdgeStyle;rounded=0;orthogonalLoop=1;jettySize=auto;html=1;" edge="1" parent="1">
          <mxGeometry relative="1" as="geometry">
            <mxPoint x="344.5" y="2640" as="sourcePoint" />
            <mxPoint x="344.5" y="2660" as="targetPoint" />
          </mxGeometry>
        </mxCell>
        <mxCell id="kPXknSdjGEKlvKpwFSjT-101" value="15" style="ellipse;whiteSpace=wrap;html=1;aspect=fixed;" vertex="1" parent="1">
          <mxGeometry x="320" y="2660" width="50" height="50" as="geometry" />
        </mxCell>
        <mxCell id="kPXknSdjGEKlvKpwFSjT-102" value="" style="endArrow=none;html=1;rounded=0;" edge="1" parent="1">
          <mxGeometry width="50" height="50" relative="1" as="geometry">
            <mxPoint x="345" y="2730" as="sourcePoint" />
            <mxPoint x="344.5" y="2710" as="targetPoint" />
          </mxGeometry>
        </mxCell>
        <mxCell id="kPXknSdjGEKlvKpwFSjT-105" value="" style="endArrow=none;html=1;rounded=0;" edge="1" parent="1">
          <mxGeometry width="50" height="50" relative="1" as="geometry">
            <mxPoint x="280" y="2730" as="sourcePoint" />
            <mxPoint x="350" y="2730" as="targetPoint" />
          </mxGeometry>
        </mxCell>
        <mxCell id="kPXknSdjGEKlvKpwFSjT-106" value="" style="endArrow=none;html=1;rounded=0;" edge="1" parent="1">
          <mxGeometry width="50" height="50" relative="1" as="geometry">
            <mxPoint x="360" y="2800" as="sourcePoint" />
            <mxPoint x="360" y="2800" as="targetPoint" />
          </mxGeometry>
        </mxCell>
        <mxCell id="kPXknSdjGEKlvKpwFSjT-107" value="" style="endArrow=none;html=1;rounded=0;" edge="1" parent="1">
          <mxGeometry width="50" height="50" relative="1" as="geometry">
            <mxPoint x="344.5" y="2760" as="sourcePoint" />
            <mxPoint x="344.5" y="2730" as="targetPoint" />
          </mxGeometry>
        </mxCell>
        <mxCell id="kPXknSdjGEKlvKpwFSjT-108" value="" style="endArrow=none;html=1;rounded=0;" edge="1" parent="1">
          <mxGeometry width="50" height="50" relative="1" as="geometry">
            <mxPoint x="280" y="2730" as="sourcePoint" />
            <mxPoint x="280" y="2610" as="targetPoint" />
          </mxGeometry>
        </mxCell>
        <mxCell id="kPXknSdjGEKlvKpwFSjT-109" value="" style="endArrow=classic;html=1;rounded=0;" edge="1" parent="1">
          <mxGeometry width="50" height="50" relative="1" as="geometry">
            <mxPoint x="280" y="2610" as="sourcePoint" />
            <mxPoint x="320" y="2610" as="targetPoint" />
          </mxGeometry>
        </mxCell>
        <mxCell id="kPXknSdjGEKlvKpwFSjT-110" value="из бл10 стр21 в бл12 стр22" style="text;html=1;strokeColor=none;fillColor=none;align=center;verticalAlign=middle;whiteSpace=wrap;rounded=0;" vertex="1" parent="1">
          <mxGeometry x="483" y="2390" width="60" height="45" as="geometry" />
        </mxCell>
        <mxCell id="kPXknSdjGEKlvKpwFSjT-111" value="1" style="ellipse;whiteSpace=wrap;html=1;aspect=fixed;" vertex="1" parent="1">
          <mxGeometry x="388" y="3000" width="50" height="50" as="geometry" />
        </mxCell>
        <mxCell id="kPXknSdjGEKlvKpwFSjT-112" value="" style="edgeStyle=orthogonalEdgeStyle;rounded=0;orthogonalLoop=1;jettySize=auto;html=1;" edge="1" parent="1">
          <mxGeometry relative="1" as="geometry">
            <mxPoint x="414" y="3050" as="sourcePoint" />
            <mxPoint x="414" y="3070" as="targetPoint" />
          </mxGeometry>
        </mxCell>
        <mxCell id="kPXknSdjGEKlvKpwFSjT-113" value="2" style="ellipse;whiteSpace=wrap;html=1;aspect=fixed;" vertex="1" parent="1">
          <mxGeometry x="389" y="3070" width="50" height="50" as="geometry" />
        </mxCell>
        <mxCell id="kPXknSdjGEKlvKpwFSjT-114" value="" style="edgeStyle=orthogonalEdgeStyle;rounded=0;orthogonalLoop=1;jettySize=auto;html=1;" edge="1" parent="1">
          <mxGeometry relative="1" as="geometry">
            <mxPoint x="414" y="3120" as="sourcePoint" />
            <mxPoint x="414" y="3140" as="targetPoint" />
          </mxGeometry>
        </mxCell>
        <mxCell id="kPXknSdjGEKlvKpwFSjT-115" value="3" style="ellipse;whiteSpace=wrap;html=1;aspect=fixed;" vertex="1" parent="1">
          <mxGeometry x="389" y="3140" width="50" height="50" as="geometry" />
        </mxCell>
        <mxCell id="kPXknSdjGEKlvKpwFSjT-116" value="4" style="ellipse;whiteSpace=wrap;html=1;aspect=fixed;" vertex="1" parent="1">
          <mxGeometry x="388" y="3210" width="50" height="50" as="geometry" />
        </mxCell>
        <mxCell id="kPXknSdjGEKlvKpwFSjT-117" value="" style="edgeStyle=orthogonalEdgeStyle;rounded=0;orthogonalLoop=1;jettySize=auto;html=1;" edge="1" parent="1">
          <mxGeometry relative="1" as="geometry">
            <mxPoint x="413" y="3190" as="sourcePoint" />
            <mxPoint x="413" y="3210" as="targetPoint" />
          </mxGeometry>
        </mxCell>
        <mxCell id="kPXknSdjGEKlvKpwFSjT-119" value="" style="edgeStyle=orthogonalEdgeStyle;rounded=0;orthogonalLoop=1;jettySize=auto;html=1;" edge="1" parent="1">
          <mxGeometry relative="1" as="geometry">
            <mxPoint x="414" y="3260" as="sourcePoint" />
            <mxPoint x="414" y="3280" as="targetPoint" />
          </mxGeometry>
        </mxCell>
        <mxCell id="kPXknSdjGEKlvKpwFSjT-120" value="5" style="ellipse;whiteSpace=wrap;html=1;aspect=fixed;" vertex="1" parent="1">
          <mxGeometry x="389" y="3280" width="50" height="50" as="geometry" />
        </mxCell>
        <mxCell id="kPXknSdjGEKlvKpwFSjT-121" value="" style="endArrow=none;html=1;rounded=0;" edge="1" parent="1">
          <mxGeometry width="50" height="50" relative="1" as="geometry">
            <mxPoint x="349" y="3305" as="sourcePoint" />
            <mxPoint x="389" y="3304.5" as="targetPoint" />
          </mxGeometry>
        </mxCell>
        <mxCell id="kPXknSdjGEKlvKpwFSjT-122" value="6" style="ellipse;whiteSpace=wrap;html=1;aspect=fixed;" vertex="1" parent="1">
          <mxGeometry x="320" y="3340" width="50" height="50" as="geometry" />
        </mxCell>
        <mxCell id="kPXknSdjGEKlvKpwFSjT-123" value="" style="endArrow=none;html=1;rounded=0;" edge="1" parent="1">
          <mxGeometry width="50" height="50" relative="1" as="geometry">
            <mxPoint x="439" y="3305" as="sourcePoint" />
            <mxPoint x="479" y="3304.5" as="targetPoint" />
          </mxGeometry>
        </mxCell>
        <mxCell id="kPXknSdjGEKlvKpwFSjT-124" value="" style="endArrow=classic;html=1;rounded=0;" edge="1" parent="1">
          <mxGeometry width="50" height="50" relative="1" as="geometry">
            <mxPoint x="350" y="3300" as="sourcePoint" />
            <mxPoint x="350" y="3340" as="targetPoint" />
          </mxGeometry>
        </mxCell>
        <mxCell id="kPXknSdjGEKlvKpwFSjT-125" value="" style="endArrow=none;html=1;rounded=0;" edge="1" parent="1">
          <mxGeometry width="50" height="50" relative="1" as="geometry">
            <mxPoint x="480" y="3410" as="sourcePoint" />
            <mxPoint x="480" y="3300" as="targetPoint" />
          </mxGeometry>
        </mxCell>
        <mxCell id="kPXknSdjGEKlvKpwFSjT-126" value="" style="endArrow=none;html=1;rounded=0;" edge="1" parent="1">
          <mxGeometry width="50" height="50" relative="1" as="geometry">
            <mxPoint x="344.5" y="3410" as="sourcePoint" />
            <mxPoint x="344.5" y="3390" as="targetPoint" />
          </mxGeometry>
        </mxCell>
        <mxCell id="kPXknSdjGEKlvKpwFSjT-127" value="" style="endArrow=none;html=1;rounded=0;" edge="1" parent="1">
          <mxGeometry width="50" height="50" relative="1" as="geometry">
            <mxPoint x="340" y="3410" as="sourcePoint" />
            <mxPoint x="480" y="3410" as="targetPoint" />
          </mxGeometry>
        </mxCell>
        <mxCell id="kPXknSdjGEKlvKpwFSjT-128" value="" style="endArrow=none;html=1;rounded=0;" edge="1" parent="1">
          <mxGeometry width="50" height="50" relative="1" as="geometry">
            <mxPoint x="413" y="3440" as="sourcePoint" />
            <mxPoint x="413" y="3410" as="targetPoint" />
          </mxGeometry>
        </mxCell>
        <mxCell id="kPXknSdjGEKlvKpwFSjT-129" value="" style="endArrow=none;html=1;rounded=0;" edge="1" parent="1">
          <mxGeometry width="50" height="50" relative="1" as="geometry">
            <mxPoint x="280" y="3440" as="sourcePoint" />
            <mxPoint x="414" y="3440" as="targetPoint" />
          </mxGeometry>
        </mxCell>
        <mxCell id="kPXknSdjGEKlvKpwFSjT-130" value="" style="endArrow=none;html=1;rounded=0;" edge="1" parent="1">
          <mxGeometry width="50" height="50" relative="1" as="geometry">
            <mxPoint x="280" y="3440" as="sourcePoint" />
            <mxPoint x="280" y="3160" as="targetPoint" />
          </mxGeometry>
        </mxCell>
        <mxCell id="kPXknSdjGEKlvKpwFSjT-132" value="" style="endArrow=classic;html=1;rounded=0;" edge="1" parent="1">
          <mxGeometry width="50" height="50" relative="1" as="geometry">
            <mxPoint x="280" y="3160" as="sourcePoint" />
            <mxPoint x="380" y="3160" as="targetPoint" />
          </mxGeometry>
        </mxCell>
        <mxCell id="kPXknSdjGEKlvKpwFSjT-133" value="" style="edgeStyle=orthogonalEdgeStyle;rounded=0;orthogonalLoop=1;jettySize=auto;html=1;" edge="1" parent="1">
          <mxGeometry relative="1" as="geometry">
            <mxPoint x="414" y="3450" as="sourcePoint" />
            <mxPoint x="414" y="3470" as="targetPoint" />
          </mxGeometry>
        </mxCell>
        <mxCell id="kPXknSdjGEKlvKpwFSjT-134" value="7" style="ellipse;whiteSpace=wrap;html=1;aspect=fixed;" vertex="1" parent="1">
          <mxGeometry x="388" y="3470" width="50" height="50" as="geometry" />
        </mxCell>
        <mxCell id="kPXknSdjGEKlvKpwFSjT-135" value="" style="endArrow=none;html=1;rounded=0;" edge="1" parent="1">
          <mxGeometry width="50" height="50" relative="1" as="geometry">
            <mxPoint x="349" y="3495" as="sourcePoint" />
            <mxPoint x="389" y="3494.5" as="targetPoint" />
          </mxGeometry>
        </mxCell>
        <mxCell id="kPXknSdjGEKlvKpwFSjT-136" value="8" style="ellipse;whiteSpace=wrap;html=1;aspect=fixed;" vertex="1" parent="1">
          <mxGeometry x="320" y="3530" width="50" height="50" as="geometry" />
        </mxCell>
        <mxCell id="kPXknSdjGEKlvKpwFSjT-137" value="" style="endArrow=none;html=1;rounded=0;" edge="1" parent="1">
          <mxGeometry width="50" height="50" relative="1" as="geometry">
            <mxPoint x="439" y="3495" as="sourcePoint" />
            <mxPoint x="479" y="3494.5" as="targetPoint" />
          </mxGeometry>
        </mxCell>
        <mxCell id="kPXknSdjGEKlvKpwFSjT-138" value="" style="endArrow=classic;html=1;rounded=0;" edge="1" parent="1">
          <mxGeometry width="50" height="50" relative="1" as="geometry">
            <mxPoint x="350" y="3490" as="sourcePoint" />
            <mxPoint x="350" y="3530" as="targetPoint" />
          </mxGeometry>
        </mxCell>
        <mxCell id="kPXknSdjGEKlvKpwFSjT-139" value="" style="endArrow=none;html=1;rounded=0;" edge="1" parent="1">
          <mxGeometry width="50" height="50" relative="1" as="geometry">
            <mxPoint x="344.5" y="3600" as="sourcePoint" />
            <mxPoint x="344.5" y="3580" as="targetPoint" />
          </mxGeometry>
        </mxCell>
        <mxCell id="kPXknSdjGEKlvKpwFSjT-140" value="" style="endArrow=none;html=1;rounded=0;" edge="1" parent="1">
          <mxGeometry width="50" height="50" relative="1" as="geometry">
            <mxPoint x="343" y="3600" as="sourcePoint" />
            <mxPoint x="483" y="3600" as="targetPoint" />
          </mxGeometry>
        </mxCell>
        <mxCell id="kPXknSdjGEKlvKpwFSjT-141" value="9" style="ellipse;whiteSpace=wrap;html=1;aspect=fixed;" vertex="1" parent="1">
          <mxGeometry x="450" y="3530" width="50" height="50" as="geometry" />
        </mxCell>
        <mxCell id="kPXknSdjGEKlvKpwFSjT-142" value="" style="endArrow=classic;html=1;rounded=0;" edge="1" parent="1">
          <mxGeometry width="50" height="50" relative="1" as="geometry">
            <mxPoint x="474.5" y="3490" as="sourcePoint" />
            <mxPoint x="474.5" y="3530" as="targetPoint" />
          </mxGeometry>
        </mxCell>
        <mxCell id="kPXknSdjGEKlvKpwFSjT-143" value="" style="endArrow=none;html=1;rounded=0;" edge="1" parent="1">
          <mxGeometry width="50" height="50" relative="1" as="geometry">
            <mxPoint x="474.5" y="3600" as="sourcePoint" />
            <mxPoint x="474.5" y="3580" as="targetPoint" />
          </mxGeometry>
        </mxCell>
        <mxCell id="kPXknSdjGEKlvKpwFSjT-144" value="" style="endArrow=none;html=1;rounded=0;" edge="1" parent="1">
          <mxGeometry width="50" height="50" relative="1" as="geometry">
            <mxPoint x="440" y="3164.5" as="sourcePoint" />
            <mxPoint x="530" y="3165" as="targetPoint" />
          </mxGeometry>
        </mxCell>
        <mxCell id="kPXknSdjGEKlvKpwFSjT-147" value="" style="endArrow=none;html=1;rounded=0;" edge="1" parent="1">
          <mxGeometry width="50" height="50" relative="1" as="geometry">
            <mxPoint x="530" y="3450" as="sourcePoint" />
            <mxPoint x="530" y="3160" as="targetPoint" />
          </mxGeometry>
        </mxCell>
        <mxCell id="kPXknSdjGEKlvKpwFSjT-148" value="" style="endArrow=none;html=1;rounded=0;" edge="1" parent="1">
          <mxGeometry width="50" height="50" relative="1" as="geometry">
            <mxPoint x="414" y="3450" as="sourcePoint" />
            <mxPoint x="530" y="3450" as="targetPoint" />
          </mxGeometry>
        </mxCell>
        <mxCell id="kPXknSdjGEKlvKpwFSjT-149" value="1" style="ellipse;whiteSpace=wrap;html=1;aspect=fixed;" vertex="1" parent="1">
          <mxGeometry x="380" y="3760" width="50" height="50" as="geometry" />
        </mxCell>
        <mxCell id="kPXknSdjGEKlvKpwFSjT-150" value="" style="edgeStyle=orthogonalEdgeStyle;rounded=0;orthogonalLoop=1;jettySize=auto;html=1;" edge="1" parent="1">
          <mxGeometry relative="1" as="geometry">
            <mxPoint x="404.5" y="3810" as="sourcePoint" />
            <mxPoint x="404.5" y="3830" as="targetPoint" />
          </mxGeometry>
        </mxCell>
        <mxCell id="kPXknSdjGEKlvKpwFSjT-151" value="2" style="ellipse;whiteSpace=wrap;html=1;aspect=fixed;" vertex="1" parent="1">
          <mxGeometry x="380" y="3830" width="50" height="50" as="geometry" />
        </mxCell>
        <mxCell id="kPXknSdjGEKlvKpwFSjT-152" value="3" style="ellipse;whiteSpace=wrap;html=1;aspect=fixed;" vertex="1" parent="1">
          <mxGeometry x="380" y="3900" width="50" height="50" as="geometry" />
        </mxCell>
        <mxCell id="kPXknSdjGEKlvKpwFSjT-153" value="" style="edgeStyle=orthogonalEdgeStyle;rounded=0;orthogonalLoop=1;jettySize=auto;html=1;" edge="1" parent="1">
          <mxGeometry relative="1" as="geometry">
            <mxPoint x="404.5" y="3880" as="sourcePoint" />
            <mxPoint x="404.5" y="3900" as="targetPoint" />
          </mxGeometry>
        </mxCell>
        <mxCell id="kPXknSdjGEKlvKpwFSjT-154" value="4" style="ellipse;whiteSpace=wrap;html=1;aspect=fixed;" vertex="1" parent="1">
          <mxGeometry x="379" y="3970" width="50" height="50" as="geometry" />
        </mxCell>
        <mxCell id="kPXknSdjGEKlvKpwFSjT-155" value="" style="endArrow=none;html=1;rounded=0;" edge="1" parent="1">
          <mxGeometry width="50" height="50" relative="1" as="geometry">
            <mxPoint x="339" y="3995" as="sourcePoint" />
            <mxPoint x="379" y="3994.5" as="targetPoint" />
          </mxGeometry>
        </mxCell>
        <mxCell id="kPXknSdjGEKlvKpwFSjT-156" value="5" style="ellipse;whiteSpace=wrap;html=1;aspect=fixed;" vertex="1" parent="1">
          <mxGeometry x="310" y="4030" width="50" height="50" as="geometry" />
        </mxCell>
        <mxCell id="kPXknSdjGEKlvKpwFSjT-157" value="" style="endArrow=none;html=1;rounded=0;" edge="1" parent="1">
          <mxGeometry width="50" height="50" relative="1" as="geometry">
            <mxPoint x="429" y="3995" as="sourcePoint" />
            <mxPoint x="469" y="3994.5" as="targetPoint" />
          </mxGeometry>
        </mxCell>
        <mxCell id="kPXknSdjGEKlvKpwFSjT-158" value="" style="endArrow=classic;html=1;rounded=0;" edge="1" parent="1">
          <mxGeometry width="50" height="50" relative="1" as="geometry">
            <mxPoint x="340" y="3990" as="sourcePoint" />
            <mxPoint x="340" y="4030" as="targetPoint" />
          </mxGeometry>
        </mxCell>
        <mxCell id="kPXknSdjGEKlvKpwFSjT-159" value="" style="endArrow=none;html=1;rounded=0;" edge="1" parent="1">
          <mxGeometry width="50" height="50" relative="1" as="geometry">
            <mxPoint x="470" y="4100" as="sourcePoint" />
            <mxPoint x="470" y="3990" as="targetPoint" />
          </mxGeometry>
        </mxCell>
        <mxCell id="kPXknSdjGEKlvKpwFSjT-160" value="" style="endArrow=none;html=1;rounded=0;" edge="1" parent="1">
          <mxGeometry width="50" height="50" relative="1" as="geometry">
            <mxPoint x="334.5" y="4100" as="sourcePoint" />
            <mxPoint x="334.5" y="4080" as="targetPoint" />
          </mxGeometry>
        </mxCell>
        <mxCell id="kPXknSdjGEKlvKpwFSjT-161" value="" style="endArrow=none;html=1;rounded=0;" edge="1" parent="1">
          <mxGeometry width="50" height="50" relative="1" as="geometry">
            <mxPoint x="330" y="4100" as="sourcePoint" />
            <mxPoint x="470" y="4100" as="targetPoint" />
          </mxGeometry>
        </mxCell>
        <mxCell id="kPXknSdjGEKlvKpwFSjT-162" value="" style="edgeStyle=orthogonalEdgeStyle;rounded=0;orthogonalLoop=1;jettySize=auto;html=1;" edge="1" parent="1">
          <mxGeometry relative="1" as="geometry">
            <mxPoint x="404.5" y="3950" as="sourcePoint" />
            <mxPoint x="404.5" y="3970" as="targetPoint" />
          </mxGeometry>
        </mxCell>
        <mxCell id="kPXknSdjGEKlvKpwFSjT-163" value="" style="edgeStyle=orthogonalEdgeStyle;rounded=0;orthogonalLoop=1;jettySize=auto;html=1;" edge="1" parent="1">
          <mxGeometry relative="1" as="geometry">
            <mxPoint x="403.5" y="4100" as="sourcePoint" />
            <mxPoint x="403.5" y="4120" as="targetPoint" />
          </mxGeometry>
        </mxCell>
        <mxCell id="kPXknSdjGEKlvKpwFSjT-164" value="6" style="ellipse;whiteSpace=wrap;html=1;aspect=fixed;" vertex="1" parent="1">
          <mxGeometry x="379" y="4120" width="50" height="50" as="geometry" />
        </mxCell>
        <mxCell id="kPXknSdjGEKlvKpwFSjT-165" value="" style="endArrow=none;html=1;rounded=0;" edge="1" parent="1">
          <mxGeometry width="50" height="50" relative="1" as="geometry">
            <mxPoint x="339" y="4145" as="sourcePoint" />
            <mxPoint x="379" y="4144.5" as="targetPoint" />
          </mxGeometry>
        </mxCell>
        <mxCell id="kPXknSdjGEKlvKpwFSjT-166" value="7" style="ellipse;whiteSpace=wrap;html=1;aspect=fixed;" vertex="1" parent="1">
          <mxGeometry x="310" y="4180" width="50" height="50" as="geometry" />
        </mxCell>
        <mxCell id="kPXknSdjGEKlvKpwFSjT-167" value="" style="endArrow=none;html=1;rounded=0;" edge="1" parent="1">
          <mxGeometry width="50" height="50" relative="1" as="geometry">
            <mxPoint x="429" y="4145" as="sourcePoint" />
            <mxPoint x="469" y="4144.5" as="targetPoint" />
          </mxGeometry>
        </mxCell>
        <mxCell id="kPXknSdjGEKlvKpwFSjT-168" value="" style="endArrow=classic;html=1;rounded=0;" edge="1" parent="1">
          <mxGeometry width="50" height="50" relative="1" as="geometry">
            <mxPoint x="340" y="4140" as="sourcePoint" />
            <mxPoint x="340" y="4180" as="targetPoint" />
          </mxGeometry>
        </mxCell>
        <mxCell id="kPXknSdjGEKlvKpwFSjT-169" value="" style="endArrow=none;html=1;rounded=0;" edge="1" parent="1">
          <mxGeometry width="50" height="50" relative="1" as="geometry">
            <mxPoint x="470" y="4250" as="sourcePoint" />
            <mxPoint x="470" y="4140" as="targetPoint" />
          </mxGeometry>
        </mxCell>
        <mxCell id="kPXknSdjGEKlvKpwFSjT-170" value="" style="endArrow=none;html=1;rounded=0;" edge="1" parent="1">
          <mxGeometry width="50" height="50" relative="1" as="geometry">
            <mxPoint x="334.5" y="4250" as="sourcePoint" />
            <mxPoint x="334.5" y="4230" as="targetPoint" />
          </mxGeometry>
        </mxCell>
        <mxCell id="kPXknSdjGEKlvKpwFSjT-171" value="" style="endArrow=none;html=1;rounded=0;" edge="1" parent="1">
          <mxGeometry width="50" height="50" relative="1" as="geometry">
            <mxPoint x="330" y="4250" as="sourcePoint" />
            <mxPoint x="470" y="4250" as="targetPoint" />
          </mxGeometry>
        </mxCell>
        <mxCell id="kPXknSdjGEKlvKpwFSjT-172" value="" style="edgeStyle=orthogonalEdgeStyle;rounded=0;orthogonalLoop=1;jettySize=auto;html=1;" edge="1" parent="1">
          <mxGeometry relative="1" as="geometry">
            <mxPoint x="403.5" y="4250" as="sourcePoint" />
            <mxPoint x="403.5" y="4270" as="targetPoint" />
          </mxGeometry>
        </mxCell>
        <mxCell id="kPXknSdjGEKlvKpwFSjT-173" value="8" style="ellipse;whiteSpace=wrap;html=1;aspect=fixed;" vertex="1" parent="1">
          <mxGeometry x="379" y="4270" width="50" height="50" as="geometry" />
        </mxCell>
        <mxCell id="kPXknSdjGEKlvKpwFSjT-174" value="" style="endArrow=none;html=1;rounded=0;" edge="1" parent="1">
          <mxGeometry width="50" height="50" relative="1" as="geometry">
            <mxPoint x="339" y="4295" as="sourcePoint" />
            <mxPoint x="379" y="4294.5" as="targetPoint" />
          </mxGeometry>
        </mxCell>
        <mxCell id="kPXknSdjGEKlvKpwFSjT-175" value="9" style="ellipse;whiteSpace=wrap;html=1;aspect=fixed;" vertex="1" parent="1">
          <mxGeometry x="310" y="4330" width="50" height="50" as="geometry" />
        </mxCell>
        <mxCell id="kPXknSdjGEKlvKpwFSjT-176" value="" style="endArrow=none;html=1;rounded=0;" edge="1" parent="1">
          <mxGeometry width="50" height="50" relative="1" as="geometry">
            <mxPoint x="429" y="4295" as="sourcePoint" />
            <mxPoint x="469" y="4294.5" as="targetPoint" />
          </mxGeometry>
        </mxCell>
        <mxCell id="kPXknSdjGEKlvKpwFSjT-177" value="" style="endArrow=classic;html=1;rounded=0;" edge="1" parent="1">
          <mxGeometry width="50" height="50" relative="1" as="geometry">
            <mxPoint x="340" y="4290" as="sourcePoint" />
            <mxPoint x="340" y="4330" as="targetPoint" />
          </mxGeometry>
        </mxCell>
        <mxCell id="kPXknSdjGEKlvKpwFSjT-178" value="" style="endArrow=none;html=1;rounded=0;" edge="1" parent="1">
          <mxGeometry width="50" height="50" relative="1" as="geometry">
            <mxPoint x="470" y="4400" as="sourcePoint" />
            <mxPoint x="470" y="4290" as="targetPoint" />
          </mxGeometry>
        </mxCell>
        <mxCell id="kPXknSdjGEKlvKpwFSjT-179" value="" style="endArrow=none;html=1;rounded=0;" edge="1" parent="1">
          <mxGeometry width="50" height="50" relative="1" as="geometry">
            <mxPoint x="334.5" y="4400" as="sourcePoint" />
            <mxPoint x="334.5" y="4380" as="targetPoint" />
          </mxGeometry>
        </mxCell>
        <mxCell id="kPXknSdjGEKlvKpwFSjT-180" value="" style="endArrow=none;html=1;rounded=0;" edge="1" parent="1">
          <mxGeometry width="50" height="50" relative="1" as="geometry">
            <mxPoint x="330" y="4400" as="sourcePoint" />
            <mxPoint x="470" y="4400" as="targetPoint" />
          </mxGeometry>
        </mxCell>
        <mxCell id="kPXknSdjGEKlvKpwFSjT-181" value="" style="edgeStyle=orthogonalEdgeStyle;rounded=0;orthogonalLoop=1;jettySize=auto;html=1;" edge="1" parent="1">
          <mxGeometry relative="1" as="geometry">
            <mxPoint x="403.5" y="4400" as="sourcePoint" />
            <mxPoint x="403.5" y="4420" as="targetPoint" />
          </mxGeometry>
        </mxCell>
        <mxCell id="kPXknSdjGEKlvKpwFSjT-182" value="10" style="ellipse;whiteSpace=wrap;html=1;aspect=fixed;" vertex="1" parent="1">
          <mxGeometry x="380" y="4420" width="50" height="50" as="geometry" />
        </mxCell>
        <mxCell id="kPXknSdjGEKlvKpwFSjT-183" value="" style="endArrow=none;html=1;rounded=0;" edge="1" parent="1">
          <mxGeometry width="50" height="50" relative="1" as="geometry">
            <mxPoint x="404" y="4490" as="sourcePoint" />
            <mxPoint x="403.5" y="4470" as="targetPoint" />
          </mxGeometry>
        </mxCell>
        <mxCell id="kPXknSdjGEKlvKpwFSjT-184" value="" style="endArrow=none;html=1;rounded=0;" edge="1" parent="1">
          <mxGeometry width="50" height="50" relative="1" as="geometry">
            <mxPoint x="267.5" y="4490" as="sourcePoint" />
            <mxPoint x="407.5" y="4490" as="targetPoint" />
          </mxGeometry>
        </mxCell>
        <mxCell id="kPXknSdjGEKlvKpwFSjT-186" value="" style="endArrow=classic;html=1;rounded=0;" edge="1" parent="1">
          <mxGeometry width="50" height="50" relative="1" as="geometry">
            <mxPoint x="270" y="3920" as="sourcePoint" />
            <mxPoint x="370" y="3920" as="targetPoint" />
          </mxGeometry>
        </mxCell>
        <mxCell id="kPXknSdjGEKlvKpwFSjT-187" value="11" style="ellipse;whiteSpace=wrap;html=1;aspect=fixed;" vertex="1" parent="1">
          <mxGeometry x="378" y="4710" width="50" height="50" as="geometry" />
        </mxCell>
        <mxCell id="kPXknSdjGEKlvKpwFSjT-188" value="" style="endArrow=none;html=1;rounded=0;" edge="1" parent="1">
          <mxGeometry width="50" height="50" relative="1" as="geometry">
            <mxPoint x="339" y="4735" as="sourcePoint" />
            <mxPoint x="379" y="4734.5" as="targetPoint" />
          </mxGeometry>
        </mxCell>
        <mxCell id="kPXknSdjGEKlvKpwFSjT-189" value="12" style="ellipse;whiteSpace=wrap;html=1;aspect=fixed;" vertex="1" parent="1">
          <mxGeometry x="310" y="4770" width="50" height="50" as="geometry" />
        </mxCell>
        <mxCell id="kPXknSdjGEKlvKpwFSjT-190" value="" style="endArrow=none;html=1;rounded=0;" edge="1" parent="1">
          <mxGeometry width="50" height="50" relative="1" as="geometry">
            <mxPoint x="429" y="4735" as="sourcePoint" />
            <mxPoint x="469" y="4734.5" as="targetPoint" />
          </mxGeometry>
        </mxCell>
        <mxCell id="kPXknSdjGEKlvKpwFSjT-191" value="" style="endArrow=classic;html=1;rounded=0;" edge="1" parent="1">
          <mxGeometry width="50" height="50" relative="1" as="geometry">
            <mxPoint x="340" y="4730" as="sourcePoint" />
            <mxPoint x="340" y="4770" as="targetPoint" />
          </mxGeometry>
        </mxCell>
        <mxCell id="kPXknSdjGEKlvKpwFSjT-192" value="" style="endArrow=none;html=1;rounded=0;" edge="1" parent="1">
          <mxGeometry width="50" height="50" relative="1" as="geometry">
            <mxPoint x="334.5" y="4840" as="sourcePoint" />
            <mxPoint x="334.5" y="4820" as="targetPoint" />
          </mxGeometry>
        </mxCell>
        <mxCell id="kPXknSdjGEKlvKpwFSjT-193" value="" style="endArrow=none;html=1;rounded=0;" edge="1" parent="1">
          <mxGeometry width="50" height="50" relative="1" as="geometry">
            <mxPoint x="333" y="4840" as="sourcePoint" />
            <mxPoint x="473" y="4840" as="targetPoint" />
          </mxGeometry>
        </mxCell>
        <mxCell id="kPXknSdjGEKlvKpwFSjT-194" value="16" style="ellipse;whiteSpace=wrap;html=1;aspect=fixed;" vertex="1" parent="1">
          <mxGeometry x="440" y="4770" width="50" height="50" as="geometry" />
        </mxCell>
        <mxCell id="kPXknSdjGEKlvKpwFSjT-195" value="" style="endArrow=classic;html=1;rounded=0;" edge="1" parent="1">
          <mxGeometry width="50" height="50" relative="1" as="geometry">
            <mxPoint x="464.5" y="4730" as="sourcePoint" />
            <mxPoint x="464.5" y="4770" as="targetPoint" />
          </mxGeometry>
        </mxCell>
        <mxCell id="kPXknSdjGEKlvKpwFSjT-196" value="" style="endArrow=none;html=1;rounded=0;" edge="1" parent="1">
          <mxGeometry width="50" height="50" relative="1" as="geometry">
            <mxPoint x="464.5" y="4840" as="sourcePoint" />
            <mxPoint x="464.5" y="4820" as="targetPoint" />
          </mxGeometry>
        </mxCell>
        <mxCell id="kPXknSdjGEKlvKpwFSjT-197" value="" style="endArrow=none;html=1;rounded=0;" edge="1" parent="1">
          <mxGeometry width="50" height="50" relative="1" as="geometry">
            <mxPoint x="430" y="3924.5" as="sourcePoint" />
            <mxPoint x="550" y="3925" as="targetPoint" />
          </mxGeometry>
        </mxCell>
        <mxCell id="kPXknSdjGEKlvKpwFSjT-198" value="" style="endArrow=classic;html=1;rounded=0;" edge="1" parent="1">
          <mxGeometry width="50" height="50" relative="1" as="geometry">
            <mxPoint x="550" y="3920" as="sourcePoint" />
            <mxPoint x="550" y="4120" as="targetPoint" />
          </mxGeometry>
        </mxCell>
        <mxCell id="kPXknSdjGEKlvKpwFSjT-199" value="1" style="ellipse;whiteSpace=wrap;html=1;aspect=fixed;" vertex="1" parent="1">
          <mxGeometry x="530" y="4120" width="50" height="50" as="geometry" />
        </mxCell>
        <mxCell id="kPXknSdjGEKlvKpwFSjT-200" value="" style="strokeWidth=2;html=1;shape=mxgraph.flowchart.annotation_2;align=left;labelPosition=right;pointerEvents=1;rotation=0;" vertex="1" parent="1">
          <mxGeometry x="604.5" y="4120" width="30" height="50" as="geometry" />
        </mxCell>
        <mxCell id="kPXknSdjGEKlvKpwFSjT-201" value="" style="endArrow=none;dashed=1;html=1;rounded=0;" edge="1" parent="1">
          <mxGeometry width="50" height="50" relative="1" as="geometry">
            <mxPoint x="580" y="4144.5" as="sourcePoint" />
            <mxPoint x="600" y="4144.5" as="targetPoint" />
          </mxGeometry>
        </mxCell>
        <mxCell id="kPXknSdjGEKlvKpwFSjT-202" value="из бл3 стр24 в бл11 стр25" style="text;html=1;strokeColor=none;fillColor=none;align=center;verticalAlign=middle;whiteSpace=wrap;rounded=0;" vertex="1" parent="1">
          <mxGeometry x="625" y="4120" width="60" height="45" as="geometry" />
        </mxCell>
        <mxCell id="kPXknSdjGEKlvKpwFSjT-203" value="1" style="ellipse;whiteSpace=wrap;html=1;aspect=fixed;" vertex="1" parent="1">
          <mxGeometry x="550" y="4590" width="50" height="50" as="geometry" />
        </mxCell>
        <mxCell id="kPXknSdjGEKlvKpwFSjT-204" value="" style="strokeWidth=2;html=1;shape=mxgraph.flowchart.annotation_2;align=left;labelPosition=right;pointerEvents=1;rotation=0;" vertex="1" parent="1">
          <mxGeometry x="624.5" y="4590" width="30" height="50" as="geometry" />
        </mxCell>
        <mxCell id="kPXknSdjGEKlvKpwFSjT-205" value="" style="endArrow=none;dashed=1;html=1;rounded=0;" edge="1" parent="1">
          <mxGeometry width="50" height="50" relative="1" as="geometry">
            <mxPoint x="600" y="4614.5" as="sourcePoint" />
            <mxPoint x="620" y="4614.5" as="targetPoint" />
          </mxGeometry>
        </mxCell>
        <mxCell id="kPXknSdjGEKlvKpwFSjT-207" value="" style="endArrow=none;html=1;rounded=0;" edge="1" parent="1">
          <mxGeometry width="50" height="50" relative="1" as="geometry">
            <mxPoint x="574.5" y="4640" as="sourcePoint" />
            <mxPoint x="574.5" y="4690" as="targetPoint" />
          </mxGeometry>
        </mxCell>
        <mxCell id="kPXknSdjGEKlvKpwFSjT-208" value="" style="endArrow=none;html=1;rounded=0;" edge="1" parent="1">
          <mxGeometry width="50" height="50" relative="1" as="geometry">
            <mxPoint x="400" y="4690" as="sourcePoint" />
            <mxPoint x="577" y="4690" as="targetPoint" />
          </mxGeometry>
        </mxCell>
        <mxCell id="kPXknSdjGEKlvKpwFSjT-209" value="" style="edgeStyle=orthogonalEdgeStyle;rounded=0;orthogonalLoop=1;jettySize=auto;html=1;" edge="1" parent="1">
          <mxGeometry relative="1" as="geometry">
            <mxPoint x="402.5" y="4690" as="sourcePoint" />
            <mxPoint x="402.5" y="4710" as="targetPoint" />
          </mxGeometry>
        </mxCell>
        <mxCell id="kPXknSdjGEKlvKpwFSjT-210" value="" style="edgeStyle=orthogonalEdgeStyle;rounded=0;orthogonalLoop=1;jettySize=auto;html=1;" edge="1" parent="1">
          <mxGeometry relative="1" as="geometry">
            <mxPoint x="402.5" y="4840" as="sourcePoint" />
            <mxPoint x="402.5" y="4860" as="targetPoint" />
          </mxGeometry>
        </mxCell>
        <mxCell id="kPXknSdjGEKlvKpwFSjT-211" value="13" style="ellipse;whiteSpace=wrap;html=1;aspect=fixed;" vertex="1" parent="1">
          <mxGeometry x="378" y="4860" width="50" height="50" as="geometry" />
        </mxCell>
        <mxCell id="kPXknSdjGEKlvKpwFSjT-212" value="" style="edgeStyle=orthogonalEdgeStyle;rounded=0;orthogonalLoop=1;jettySize=auto;html=1;" edge="1" parent="1">
          <mxGeometry relative="1" as="geometry">
            <mxPoint x="403.5" y="4910" as="sourcePoint" />
            <mxPoint x="403.5" y="4930" as="targetPoint" />
          </mxGeometry>
        </mxCell>
        <mxCell id="kPXknSdjGEKlvKpwFSjT-213" value="14" style="ellipse;whiteSpace=wrap;html=1;aspect=fixed;" vertex="1" parent="1">
          <mxGeometry x="381" y="4930" width="50" height="50" as="geometry" />
        </mxCell>
        <mxCell id="kPXknSdjGEKlvKpwFSjT-214" value="" style="endArrow=none;html=1;rounded=0;" edge="1" parent="1">
          <mxGeometry width="50" height="50" relative="1" as="geometry">
            <mxPoint x="342" y="4955" as="sourcePoint" />
            <mxPoint x="382" y="4954.5" as="targetPoint" />
          </mxGeometry>
        </mxCell>
        <mxCell id="kPXknSdjGEKlvKpwFSjT-215" value="15" style="ellipse;whiteSpace=wrap;html=1;aspect=fixed;" vertex="1" parent="1">
          <mxGeometry x="313" y="4990" width="50" height="50" as="geometry" />
        </mxCell>
        <mxCell id="kPXknSdjGEKlvKpwFSjT-216" value="" style="endArrow=none;html=1;rounded=0;" edge="1" parent="1">
          <mxGeometry width="50" height="50" relative="1" as="geometry">
            <mxPoint x="432" y="4955" as="sourcePoint" />
            <mxPoint x="472" y="4954.5" as="targetPoint" />
          </mxGeometry>
        </mxCell>
        <mxCell id="kPXknSdjGEKlvKpwFSjT-217" value="" style="endArrow=classic;html=1;rounded=0;" edge="1" parent="1">
          <mxGeometry width="50" height="50" relative="1" as="geometry">
            <mxPoint x="343" y="4950" as="sourcePoint" />
            <mxPoint x="343" y="4990" as="targetPoint" />
          </mxGeometry>
        </mxCell>
        <mxCell id="kPXknSdjGEKlvKpwFSjT-218" value="" style="endArrow=none;html=1;rounded=0;" edge="1" parent="1">
          <mxGeometry width="50" height="50" relative="1" as="geometry">
            <mxPoint x="337.5" y="5060" as="sourcePoint" />
            <mxPoint x="337.5" y="5040" as="targetPoint" />
          </mxGeometry>
        </mxCell>
        <mxCell id="kPXknSdjGEKlvKpwFSjT-219" value="" style="endArrow=none;html=1;rounded=0;" edge="1" parent="1">
          <mxGeometry width="50" height="50" relative="1" as="geometry">
            <mxPoint x="336" y="5060" as="sourcePoint" />
            <mxPoint x="476" y="5060" as="targetPoint" />
          </mxGeometry>
        </mxCell>
        <mxCell id="kPXknSdjGEKlvKpwFSjT-220" value="17" style="ellipse;whiteSpace=wrap;html=1;aspect=fixed;" vertex="1" parent="1">
          <mxGeometry x="443" y="4990" width="50" height="50" as="geometry" />
        </mxCell>
        <mxCell id="kPXknSdjGEKlvKpwFSjT-221" value="" style="endArrow=classic;html=1;rounded=0;" edge="1" parent="1">
          <mxGeometry width="50" height="50" relative="1" as="geometry">
            <mxPoint x="467.5" y="4950" as="sourcePoint" />
            <mxPoint x="467.5" y="4990" as="targetPoint" />
          </mxGeometry>
        </mxCell>
        <mxCell id="kPXknSdjGEKlvKpwFSjT-222" value="" style="endArrow=none;html=1;rounded=0;" edge="1" parent="1">
          <mxGeometry width="50" height="50" relative="1" as="geometry">
            <mxPoint x="467.5" y="5060" as="sourcePoint" />
            <mxPoint x="467.5" y="5040" as="targetPoint" />
          </mxGeometry>
        </mxCell>
        <mxCell id="kPXknSdjGEKlvKpwFSjT-223" value="из бл3 стр24 в бл11 стр25" style="text;html=1;strokeColor=none;fillColor=none;align=center;verticalAlign=middle;whiteSpace=wrap;rounded=0;" vertex="1" parent="1">
          <mxGeometry x="650" y="4592.5" width="60" height="45" as="geometry" />
        </mxCell>
        <mxCell id="kPXknSdjGEKlvKpwFSjT-224" value="" style="endArrow=none;html=1;rounded=0;" edge="1" parent="1">
          <mxGeometry width="50" height="50" relative="1" as="geometry">
            <mxPoint x="270" y="4490" as="sourcePoint" />
            <mxPoint x="270" y="3920" as="targetPoint" />
          </mxGeometry>
        </mxCell>
      </root>
    </mxGraphModel>
  </diagram>
</mxfile>
